<svg width="26" height="29" viewBox="0 0 26 29" fill="none" xmlns="http://www.w3.org/2000/svg">
<path d="M0 11.3462C0 9.38875 0.413277 7.53396 1.23983 5.78187C2.06639 4.02979 3.24544 2.5375 4.777 1.305L6.27209 2.93625C4.98364 3.97542 3.98083 5.22604 3.26367 6.68812C2.54652 8.15021 2.18794 9.70292 2.18794 11.3462H0ZM23.8121 11.3462C23.8121 9.70292 23.4717 8.15021 22.791 6.68812C22.1103 5.22604 21.1258 3.97542 19.8373 2.93625L21.3324 1.305C22.8396 2.56167 23.9944 4.06 24.7966 5.8C25.5989 7.54 26 9.38875 26 11.3462H23.8121ZM1.31276 24.65V22.475H4.37588V11.3825C4.37588 9.3525 4.97756 7.54604 6.18093 5.96312C7.38429 4.38021 8.97055 3.38333 10.9397 2.9725V1.92125C10.9397 1.36542 11.1403 0.90625 11.5414 0.54375C11.9425 0.18125 12.4226 0 12.9818 0C13.5409 0 14.021 0.18125 14.4222 0.54375C14.8233 0.90625 15.0238 1.36542 15.0238 1.92125V2.9725C16.993 3.38333 18.5853 4.38021 19.8008 5.96312C21.0164 7.54604 21.6241 9.3525 21.6241 11.3825V22.475H24.6508V24.65H1.31276ZM12.9818 29C12.2038 29 11.5231 28.716 10.9397 28.1481C10.3562 27.5802 10.0645 26.8975 10.0645 26.1H15.899C15.899 26.8975 15.6134 27.5802 15.0421 28.1481C14.4708 28.716 13.784 29 12.9818 29ZM6.56381 22.475H19.4362V11.3825C19.4362 9.59417 18.8163 8.07167 17.5764 6.815C16.3366 5.55833 14.8172 4.93 13.0182 4.93C11.2193 4.93 9.69378 5.55833 8.4418 6.815C7.18981 8.07167 6.56381 9.59417 6.56381 11.3825V22.475Z" fill="white"/>
</svg>
