<svg width="28" height="29" viewBox="0 0 28 29" fill="none" xmlns="http://www.w3.org/2000/svg">
<path d="M3.09896 24.5885V22.419H6.16146V11.0287C6.16146 10.3152 6.26476 9.61249 6.47135 8.92061C6.67795 8.22873 6.96354 7.56941 7.32812 6.94264L8.96875 8.56983C8.77431 8.97963 8.6224 9.38342 8.51302 9.78117C8.40365 10.1789 8.34896 10.5948 8.34896 11.0287V22.419H19.8698L0 2.71197L1.53125 1.19327L28 27.4813L26.4688 29L22.0208 24.5885H3.09896ZM23.4062 19.8155L21.2188 17.6459V11.3541C21.2188 9.54613 20.605 8.0214 19.3776 6.77993C18.1502 5.53845 16.6372 4.91771 14.8385 4.91771C13.9878 4.91771 13.1736 5.05632 12.3958 5.33354C11.6181 5.61077 10.901 6.08687 10.2448 6.76185L8.67708 5.20698C9.33333 4.58022 9.99566 4.09206 10.6641 3.74252C11.3325 3.39298 12.0191 3.13383 12.724 2.96509V2.02165C12.724 1.46009 12.9216 0.982758 13.317 0.589655C13.7123 0.196552 14.1923 0 14.7571 0C15.3218 0 15.8047 0.196552 16.2057 0.589655C16.6068 0.982758 16.8073 1.46009 16.8073 2.02165V2.96509C18.7031 3.3749 20.2769 4.36326 21.5286 5.93017C22.7804 7.49709 23.4062 9.30507 23.4062 11.3541V19.8155ZM14.7656 28.9277C13.9635 28.9277 13.2769 28.6444 12.7057 28.0779C12.1345 27.5114 11.849 26.8304 11.849 26.0349H17.6823C17.6823 26.8304 17.3967 27.5114 16.8255 28.0779C16.2543 28.6444 15.5677 28.9277 14.7656 28.9277Z" fill="white"/>
</svg>
