<svg width="59" height="44" viewBox="0 0 59 44" fill="none" xmlns="http://www.w3.org/2000/svg">
<rect width="59" height="44" rx="10" fill="#47B071"/>
<path d="M17 19.3462C17 17.3887 17.4133 15.534 18.2398 13.7819C19.0664 12.0298 20.2454 10.5375 21.777 9.305L23.2721 10.9362C21.9836 11.9754 20.9808 13.226 20.2637 14.6881C19.5465 16.1502 19.1879 17.7029 19.1879 19.3462H17ZM40.8121 19.3462C40.8121 17.7029 40.4717 16.1502 39.791 14.6881C39.1103 13.226 38.1258 11.9754 36.8373 10.9362L38.3324 9.305C39.8396 10.5617 40.9944 12.06 41.7966 13.8C42.5989 15.54 43 17.3887 43 19.3462H40.8121ZM18.3128 32.65V30.475H21.3759V19.3825C21.3759 17.3525 21.9776 15.546 23.1809 13.9631C24.3843 12.3802 25.9705 11.3833 27.9397 10.9725V9.92125C27.9397 9.36542 28.1403 8.90625 28.5414 8.54375C28.9425 8.18125 29.4226 8 29.9818 8C30.5409 8 31.021 8.18125 31.4222 8.54375C31.8233 8.90625 32.0238 9.36542 32.0238 9.92125V10.9725C33.993 11.3833 35.5853 12.3802 36.8008 13.9631C38.0164 15.546 38.6241 17.3525 38.6241 19.3825V30.475H41.6508V32.65H18.3128ZM29.9818 37C29.2038 37 28.5231 36.716 27.9397 36.1481C27.3562 35.5802 27.0645 34.8975 27.0645 34.1H32.899C32.899 34.8975 32.6134 35.5802 32.0421 36.1481C31.4708 36.716 30.784 37 29.9818 37ZM23.5638 30.475H36.4362V19.3825C36.4362 17.5942 35.8163 16.0717 34.5764 14.815C33.3366 13.5583 31.8172 12.93 30.0182 12.93C28.2193 12.93 26.6938 13.5583 25.4418 14.815C24.1898 16.0717 23.5638 17.5942 23.5638 19.3825V30.475Z" fill="white"/>
</svg>
